<svg id="Layer_1" data-name="Layer 1" xmlns="http://www.w3.org/2000/svg" viewBox="0 0 225 60"><defs><style>.cls-1{fill:#58595b;}.cls-2{fill:#fff;}.cls-2,.cls-3,.cls-4{fill-rule:evenodd;}.cls-3{fill:#e57725;}.cls-4{fill:#005680;}</style></defs><rect class="cls-1" x="67.8" y="46.22" width="66.81" height="10.01" rx="1.53"/><path class="cls-2" d="M138.81,53.18a1.4,1.4,0,0,0,.43-.06.75.75,0,0,0,.29-.16.66.66,0,0,0,.17-.24,1,1,0,0,0,.05-.31.62.62,0,0,0-.24-.52,1.06,1.06,0,0,0-.7-.2h-.92v1.49Zm76.88-1.38a1.27,1.27,0,0,0-.05-.34.93.93,0,0,0-.15-.26.62.62,0,0,0-.25-.17.66.66,0,0,0-.32-.07.82.82,0,0,0-.61.23,1,1,0,0,0-.27.61Zm.43,1.42a1.47,1.47,0,0,1-.53.35l-.32.08-.33,0a1.58,1.58,0,0,1-.58-.11,1.21,1.21,0,0,1-.46-.31,1.62,1.62,0,0,1-.3-.5,2.09,2.09,0,0,1-.1-.69,1.87,1.87,0,0,1,.09-.59,1.64,1.64,0,0,1,.28-.48,1.21,1.21,0,0,1,.45-.31,1.47,1.47,0,0,1,1.09,0,1.34,1.34,0,0,1,.4.27,1.11,1.11,0,0,1,.26.42,1.7,1.7,0,0,1,.1.57.32.32,0,0,1,0,.17.11.11,0,0,1-.1,0h-2a1.8,1.8,0,0,0,.08.5.92.92,0,0,0,.2.35.66.66,0,0,0,.29.21,1,1,0,0,0,.39.07,1.13,1.13,0,0,0,.34,0l.25-.1.18-.1a.21.21,0,0,1,.12-.05.14.14,0,0,1,.1.05l.15.2Zm.6.09a.4.4,0,0,1,0-.15.44.44,0,0,1,.08-.11A.25.25,0,0,1,217,53a.32.32,0,0,1,.14,0,.37.37,0,0,1,.15,0,.25.25,0,0,1,.12.08.44.44,0,0,1,.08.11.39.39,0,0,1,0,.3l-.08.12a.24.24,0,0,1-.12.07.37.37,0,0,1-.15,0,.32.32,0,0,1-.14,0,.24.24,0,0,1-.12-.07l-.08-.12a.4.4,0,0,1,0-.15Zm-78.83-3.48v1.45h.76a1.34,1.34,0,0,0,.42-.05,1.05,1.05,0,0,0,.3-.15.48.48,0,0,0,.17-.23.73.73,0,0,0,.06-.3.66.66,0,0,0-.22-.55,1.16,1.16,0,0,0-.71-.17Zm.78-.46a2.7,2.7,0,0,1,.68.08,1.21,1.21,0,0,1,.47.22.85.85,0,0,1,.27.35,1.34,1.34,0,0,1,.08.46.81.81,0,0,1,0,.31,1.16,1.16,0,0,1-.14.27,1.36,1.36,0,0,1-.25.22,1.25,1.25,0,0,1-.35.16,1.25,1.25,0,0,1,.7.34.88.88,0,0,1,.24.64,1.18,1.18,0,0,1-.1.5,1.07,1.07,0,0,1-.29.38,1.41,1.41,0,0,1-.47.25,2.11,2.11,0,0,1-.64.09h-1.51V49.37Zm4.78,1.25v3h-.31a.13.13,0,0,1-.14-.11L143,53.2a1.48,1.48,0,0,1-.44.35,1.13,1.13,0,0,1-.56.14,1,1,0,0,1-.43-.09.82.82,0,0,1-.32-.23A.89.89,0,0,1,141,53a1.64,1.64,0,0,1-.07-.46V50.62h.53v1.93a.86.86,0,0,0,.16.53.6.6,0,0,0,.48.18.85.85,0,0,0,.44-.11,1.33,1.33,0,0,0,.37-.31V50.62Zm1.4,0v3h-.53v-3Zm.12-.94a.35.35,0,0,1,0,.14.47.47,0,0,1-.09.12.36.36,0,0,1-.12.08l-.15,0a.32.32,0,0,1-.14,0,.36.36,0,0,1-.12-.08.83.83,0,0,1-.08-.12.35.35,0,0,1,0-.14.33.33,0,0,1,0-.15.36.36,0,0,1,.08-.12.27.27,0,0,1,.12-.09.32.32,0,0,1,.14,0,.4.4,0,0,1,.15,0,.53.53,0,0,1,.21.21.33.33,0,0,1,0,.15Zm1.3-.43v4.39h-.53V49.25Zm2.82,2.09a.83.83,0,0,0-.32-.28.92.92,0,0,0-.38-.08.77.77,0,0,0-.65.3,1.42,1.42,0,0,0-.23.86,2.34,2.34,0,0,0,.05.5,1.27,1.27,0,0,0,.15.35.64.64,0,0,0,.24.2.94.94,0,0,0,.79-.06,1.35,1.35,0,0,0,.35-.33V51.34Zm.53-2.09v4.39h-.31a.13.13,0,0,1-.14-.11l0-.37a1.74,1.74,0,0,1-.44.38,1.2,1.2,0,0,1-.57.14,1.09,1.09,0,0,1-.48-.1,1,1,0,0,1-.36-.29,1.48,1.48,0,0,1-.22-.49,2.19,2.19,0,0,1-.09-.66,2.06,2.06,0,0,1,.09-.62,1.58,1.58,0,0,1,.26-.5,1.19,1.19,0,0,1,1-.45,1.13,1.13,0,0,1,.47.09,1.1,1.1,0,0,1,.35.26V49.25Zm1.4,1.37v3h-.53v-3Zm.12-.94a.35.35,0,0,1,0,.14.94.94,0,0,1-.09.12.36.36,0,0,1-.12.08l-.15,0a.32.32,0,0,1-.14,0,.36.36,0,0,1-.12-.08l-.08-.12a.35.35,0,0,1,0-.14.33.33,0,0,1,0-.15.36.36,0,0,1,.08-.12.27.27,0,0,1,.12-.09.32.32,0,0,1,.14,0,.4.4,0,0,1,.15,0,.27.27,0,0,1,.12.09.38.38,0,0,1,.09.12.33.33,0,0,1,0,.15Zm1.25,1.38.21-.2a1,1,0,0,1,.24-.15.82.82,0,0,1,.26-.1,1.36,1.36,0,0,1,.3,0,1,1,0,0,1,.43.09.82.82,0,0,1,.32.23,1,1,0,0,1,.19.36,1.72,1.72,0,0,1,.07.47v1.92h-.54V51.72a.82.82,0,0,0-.15-.53.59.59,0,0,0-.48-.19.85.85,0,0,0-.44.11,1.53,1.53,0,0,0-.37.31v2.22h-.54v-3h.32a.13.13,0,0,1,.14.11l0,.33Zm3.88,1.1a.82.82,0,0,0,.28,0,.57.57,0,0,0,.21-.13.52.52,0,0,0,.12-.19.61.61,0,0,0,0-.24.55.55,0,0,0-.17-.44.65.65,0,0,0-.48-.17.66.66,0,0,0-.49.17.59.59,0,0,0-.17.44.61.61,0,0,0,0,.24.43.43,0,0,0,.13.19.46.46,0,0,0,.2.13.88.88,0,0,0,.29,0Zm.95,1.64a.28.28,0,0,0-.06-.18.4.4,0,0,0-.17-.1.84.84,0,0,0-.24-.06l-.3,0-.32,0-.31,0a.77.77,0,0,0-.27.19.4.4,0,0,0-.1.28.32.32,0,0,0,.05.19.34.34,0,0,0,.16.15.85.85,0,0,0,.27.1,1.38,1.38,0,0,0,.38,0,1.48,1.48,0,0,0,.38,0,1,1,0,0,0,.29-.11.49.49,0,0,0,.18-.17.43.43,0,0,0,.06-.22Zm.54-3.06v.2q0,.09-.12.12l-.35,0a.89.89,0,0,1,.11.43.87.87,0,0,1-.09.4.9.9,0,0,1-.23.31,1,1,0,0,1-.36.2,1.63,1.63,0,0,1-.45.07,1.68,1.68,0,0,1-.4-.05.47.47,0,0,0-.15.12.27.27,0,0,0-.05.14.18.18,0,0,0,.09.16A.62.62,0,0,0,156,53l.33,0,.37,0,.38,0a1.33,1.33,0,0,1,.32.11.58.58,0,0,1,.23.21.57.57,0,0,1,.09.34.74.74,0,0,1-.1.37.91.91,0,0,1-.27.32,1.47,1.47,0,0,1-.45.23,1.78,1.78,0,0,1-.59.09,2.42,2.42,0,0,1-.58-.07,1.11,1.11,0,0,1-.41-.18.75.75,0,0,1-.25-.25.67.67,0,0,1-.08-.3.56.56,0,0,1,.14-.38,1,1,0,0,1,.38-.25.56.56,0,0,1-.21-.16.41.41,0,0,1-.08-.27.31.31,0,0,1,0-.13.37.37,0,0,1,.07-.14.49.49,0,0,1,.12-.13.74.74,0,0,1,.17-.12.86.86,0,0,1-.35-.33,1,1,0,0,1-.13-.48.92.92,0,0,1,.33-.71,1.23,1.23,0,0,1,.36-.19,1.35,1.35,0,0,1,.46-.07,2,2,0,0,1,.36,0,1.26,1.26,0,0,1,.31.13Zm4.91-.88h-1.38v3.78h-.58V49.86h-1.38v-.49h3.34v.49Zm1.8,1.94a1.27,1.27,0,0,0-.05-.34.76.76,0,0,0-.16-.26A.53.53,0,0,0,164,51a.66.66,0,0,0-.32-.07.82.82,0,0,0-.61.23,1,1,0,0,0-.27.61Zm.43,1.42-.15-.2a.14.14,0,0,0-.1-.05.21.21,0,0,0-.12.05l-.18.1-.25.1a1.13,1.13,0,0,1-.34,0,1,1,0,0,1-.39-.07.75.75,0,0,1-.3-.21,1.06,1.06,0,0,1-.19-.35,1.8,1.8,0,0,1-.08-.5h2a.11.11,0,0,0,.1,0,.35.35,0,0,0,0-.17,1.7,1.7,0,0,0-.09-.57,1.11,1.11,0,0,0-.26-.42,1.34,1.34,0,0,0-.4-.27,1.4,1.4,0,0,0-.51-.09,1.37,1.37,0,0,0-.58.12,1.21,1.21,0,0,0-.45.31,1.64,1.64,0,0,0-.28.48,1.87,1.87,0,0,0-.09.59,2.09,2.09,0,0,0,.1.69,1.45,1.45,0,0,0,.3.5,1.21,1.21,0,0,0,.46.31,1.52,1.52,0,0,0,.57.11,1.84,1.84,0,0,0,.33,0l.33-.08a1.47,1.47,0,0,0,.53-.35Zm2.79-2.06a.12.12,0,0,1-.05.05.08.08,0,0,1-.06,0,.26.26,0,0,1-.1,0,.74.74,0,0,0-.13-.08l-.19-.08a.85.85,0,0,0-.29,0,.8.8,0,0,0-.39.08.76.76,0,0,0-.28.22,1,1,0,0,0-.18.37,2.19,2.19,0,0,0-.05.47,1.88,1.88,0,0,0,.06.49.89.89,0,0,0,.18.35.64.64,0,0,0,.27.22.87.87,0,0,0,.37.08,1,1,0,0,0,.32-.05.75.75,0,0,0,.2-.1l.14-.1a.18.18,0,0,1,.11-.05.12.12,0,0,1,.1.05l.15.2a.87.87,0,0,1-.23.2,1.35,1.35,0,0,1-.26.15,1.09,1.09,0,0,1-.31.08,1.66,1.66,0,0,1-.32,0,1.27,1.27,0,0,1-.52-.1,1.1,1.1,0,0,1-.43-.31,1.6,1.6,0,0,1-.28-.48,2.28,2.28,0,0,1-.1-.66,2,2,0,0,1,.1-.62,1.42,1.42,0,0,1,.27-.5,1.23,1.23,0,0,1,.45-.32,1.52,1.52,0,0,1,1.16,0,1.26,1.26,0,0,1,.43.29l-.14.19ZM169,51a1.66,1.66,0,0,1,.43-.32,1.2,1.2,0,0,1,.54-.13,1,1,0,0,1,.44.09.79.79,0,0,1,.31.23.89.89,0,0,1,.19.36,1.41,1.41,0,0,1,.07.47v1.92h-.53V51.72a.76.76,0,0,0-.16-.53.56.56,0,0,0-.47-.19.82.82,0,0,0-.44.11,1.4,1.4,0,0,0-.38.31v2.22h-.53V49.25H169V51Zm3.29,0a2,2,0,0,1,.21-.2,1.14,1.14,0,0,1,.23-.15.93.93,0,0,1,.26-.1,1.54,1.54,0,0,1,.3,0,1,1,0,0,1,.44.09.82.82,0,0,1,.32.23,1.23,1.23,0,0,1,.19.36,1.73,1.73,0,0,1,.06.47v1.92h-.53V51.72a.76.76,0,0,0-.16-.53.56.56,0,0,0-.47-.19.85.85,0,0,0-.44.11,1.57,1.57,0,0,0-.38.31v2.22h-.53v-3h.32a.14.14,0,0,1,.14.11l0,.33Zm4.09-.49a1.64,1.64,0,0,1,.6.11,1.23,1.23,0,0,1,.45.32,1.25,1.25,0,0,1,.29.49,2.1,2.1,0,0,1,0,1.28,1.33,1.33,0,0,1-.29.49,1.1,1.1,0,0,1-.45.31,1.69,1.69,0,0,1-1.2,0,1.25,1.25,0,0,1-.45-.31,1.48,1.48,0,0,1-.29-.49,2.1,2.1,0,0,1,0-1.28,1.39,1.39,0,0,1,.29-.49,1.42,1.42,0,0,1,.45-.32,1.64,1.64,0,0,1,.6-.11Zm0,2.7A.78.78,0,0,0,177,53a1.71,1.71,0,0,0,0-1.68.78.78,0,0,0-.67-.3.93.93,0,0,0-.39.08.67.67,0,0,0-.28.22,1.2,1.2,0,0,0-.17.36,2.28,2.28,0,0,0,0,.48,1.38,1.38,0,0,0,.22.84.78.78,0,0,0,.67.3Zm2.66-4v4.39h-.53V49.25Zm2.13,1.32a1.55,1.55,0,0,1,.59.11,1.23,1.23,0,0,1,.45.32,1.14,1.14,0,0,1,.29.49,2.1,2.1,0,0,1,0,1.28,1.21,1.21,0,0,1-.29.49,1.1,1.1,0,0,1-.45.31,1.66,1.66,0,0,1-1.19,0,1.21,1.21,0,0,1-.46-.31,1.31,1.31,0,0,1-.28-.49,2.1,2.1,0,0,1,0-1.28,1.24,1.24,0,0,1,.28-.49,1.36,1.36,0,0,1,.46-.32,1.57,1.57,0,0,1,.6-.11Zm0,2.7a.76.76,0,0,0,.66-.3,1.71,1.71,0,0,0,0-1.68.76.76,0,0,0-.66-.3,1,1,0,0,0-.4.08.74.74,0,0,0-.28.22,1,1,0,0,0-.16.36,1.75,1.75,0,0,0-.06.48,1.38,1.38,0,0,0,.22.84.79.79,0,0,0,.68.3Zm3.14-1.11a.82.82,0,0,0,.28,0,.57.57,0,0,0,.21-.13.52.52,0,0,0,.12-.19.61.61,0,0,0,0-.24.58.58,0,0,0-.16-.44.69.69,0,0,0-.49-.17.66.66,0,0,0-.49.17.59.59,0,0,0-.17.44.61.61,0,0,0,0,.24.43.43,0,0,0,.13.19.53.53,0,0,0,.2.13.88.88,0,0,0,.29,0Zm.95,1.64a.28.28,0,0,0-.06-.18.4.4,0,0,0-.17-.1.84.84,0,0,0-.24-.06l-.3,0-.32,0-.31,0a.77.77,0,0,0-.27.19.4.4,0,0,0-.1.28.32.32,0,0,0,0,.19.39.39,0,0,0,.16.15.85.85,0,0,0,.27.1,1.43,1.43,0,0,0,.38,0,1.48,1.48,0,0,0,.38,0,1,1,0,0,0,.29-.11.49.49,0,0,0,.18-.17.43.43,0,0,0,.06-.22Zm.54-3.06v.2q0,.09-.12.12l-.34,0a1,1,0,0,1,.1.43.87.87,0,0,1-.09.4.79.79,0,0,1-.23.31,1,1,0,0,1-.36.2,1.63,1.63,0,0,1-.45.07,1.68,1.68,0,0,1-.4-.05.61.61,0,0,0-.15.12.27.27,0,0,0,0,.14.18.18,0,0,0,.09.16A.69.69,0,0,0,184,53l.33,0,.37,0,.38,0a1.33,1.33,0,0,1,.32.11.52.52,0,0,1,.23.21.57.57,0,0,1,.09.34.84.84,0,0,1-.09.37,1.06,1.06,0,0,1-.28.32,1.36,1.36,0,0,1-.45.23,1.78,1.78,0,0,1-.59.09,2.42,2.42,0,0,1-.58-.07,1.19,1.19,0,0,1-.41-.18.75.75,0,0,1-.25-.25.67.67,0,0,1-.08-.3.56.56,0,0,1,.14-.38.94.94,0,0,1,.39-.25.6.6,0,0,1-.22-.16.41.41,0,0,1-.08-.27.31.31,0,0,1,0-.13.37.37,0,0,1,.07-.14.49.49,0,0,1,.12-.13.74.74,0,0,1,.17-.12.86.86,0,0,1-.35-.33,1,1,0,0,1-.13-.48.92.92,0,0,1,.33-.71,1.23,1.23,0,0,1,.36-.19,1.35,1.35,0,0,1,.46-.07,2,2,0,0,1,.36,0,1.26,1.26,0,0,1,.31.13Zm3.16-.12-1.69,3.91a.2.2,0,0,1-.06.09.17.17,0,0,1-.13,0h-.39l.55-1.2L186,50.62h.45a.12.12,0,0,1,.11,0,.13.13,0,0,1,.06.07l.81,1.9.08.26a1.14,1.14,0,0,1,.09-.26l.78-1.9a.16.16,0,0,1,.06-.08.17.17,0,0,1,.1,0Zm2,3V51.07l-.33,0a.28.28,0,0,1-.11,0,.13.13,0,0,1,0-.09v-.22H191v-.29a1.31,1.31,0,0,1,.07-.46,1,1,0,0,1,.21-.34.93.93,0,0,1,.33-.21,1.12,1.12,0,0,1,.42-.07,1.16,1.16,0,0,1,.38.06v.26s0,.08-.08.08h-.2a1,1,0,0,0-.25,0,.47.47,0,0,0-.19.12.53.53,0,0,0-.12.21,1,1,0,0,0-.05.32v.28h.87v.39h-.85v2.57ZM194,50.57a1.64,1.64,0,0,1,.6.11,1.23,1.23,0,0,1,.45.32,1.25,1.25,0,0,1,.29.49,2.1,2.1,0,0,1,0,1.28,1.33,1.33,0,0,1-.29.49,1.1,1.1,0,0,1-.45.31,1.69,1.69,0,0,1-1.2,0,1.17,1.17,0,0,1-.45-.31,1.33,1.33,0,0,1-.29-.49,2.1,2.1,0,0,1,0-1.28A1.25,1.25,0,0,1,193,51a1.32,1.32,0,0,1,.45-.32,1.64,1.64,0,0,1,.6-.11Zm0,2.7a.78.78,0,0,0,.67-.3,1.71,1.71,0,0,0,0-1.68A.78.78,0,0,0,194,51a.93.93,0,0,0-.39.08.67.67,0,0,0-.28.22,1,1,0,0,0-.17.36,2.28,2.28,0,0,0-.05.48,1.38,1.38,0,0,0,.22.84.78.78,0,0,0,.67.3Zm2.61-2a1.43,1.43,0,0,1,.35-.49.8.8,0,0,1,.51-.17l.19,0a.67.67,0,0,1,.15.06l0,.4a.09.09,0,0,1-.09.08l-.12,0-.18,0a.62.62,0,0,0-.25,0,.56.56,0,0,0-.2.12.83.83,0,0,0-.16.21,1.69,1.69,0,0,0-.13.27v1.91h-.53v-3h.3a.17.17,0,0,1,.12,0,.27.27,0,0,1,.05.12l0,.46Zm3.77-1.39v1.49h1.75v.47h-1.75v1.84h-.58V49.37h2.63v.47Zm4.92.78v3H205a.14.14,0,0,1-.14-.11l0-.33a1.62,1.62,0,0,1-.44.35,1.13,1.13,0,0,1-.56.14,1,1,0,0,1-.44-.09.79.79,0,0,1-.31-.23,1,1,0,0,1-.2-.36,1.65,1.65,0,0,1-.06-.46V50.62h.53v1.93a.8.8,0,0,0,.16.53.58.58,0,0,0,.47.18.82.82,0,0,0,.44-.11,1.37,1.37,0,0,0,.38-.31V50.62Zm1.77,3.07a.73.73,0,0,1-.55-.2.82.82,0,0,1-.2-.58V51.07H206a.11.11,0,0,1-.08,0,.12.12,0,0,1,0-.09v-.21l.49-.06.12-.94a.16.16,0,0,1,0-.07.14.14,0,0,1,.09,0h.26v1h.88v.39h-.88v1.81a.36.36,0,0,0,.1.28.32.32,0,0,0,.23.09l.15,0,.1,0,.08,0,.06,0a.1.1,0,0,1,.07,0l.16.25a1.21,1.21,0,0,1-.73.28Zm3.68-3.07v3h-.31a.13.13,0,0,1-.14-.11l-.05-.33a1.48,1.48,0,0,1-.44.35,1.13,1.13,0,0,1-.56.14,1,1,0,0,1-.43-.09.82.82,0,0,1-.32-.23,1,1,0,0,1-.19-.36,1.64,1.64,0,0,1-.07-.46V50.62h.53v1.93a.86.86,0,0,0,.16.53.6.6,0,0,0,.48.18.85.85,0,0,0,.44-.11,1.33,1.33,0,0,0,.37-.31V50.62Zm1.35.61a1.31,1.31,0,0,1,.35-.49.8.8,0,0,1,.51-.17l.18,0a.76.76,0,0,1,.16.06l0,.4a.09.09,0,0,1-.09.08l-.12,0-.18,0a.71.71,0,0,0-.26,0,.82.82,0,0,0-.2.12,1.16,1.16,0,0,0-.16.21q-.06.12-.12.27v1.91h-.54v-3h.31a.17.17,0,0,1,.12,0,.28.28,0,0,1,0,.12Z"/><path class="cls-2" d="M103,54h.85l1.31-4c.05.17.12.33.17.49.15.54.62,1.89.83,2.5.05.17.11.33.16.5a3.22,3.22,0,0,1,.16.5h.84L109,48.45c-1.26,0-.89-.2-1.46,1.56l-.68,2.32,0-.1c-.4-1.13-.77-2.34-1.18-3.48-.11-.32-.29-.3-.56-.3a.39.39,0,0,0-.39.28l-.85,2.54c-.07.2-.33.89-.35,1h0a1.53,1.53,0,0,0-.07-.29l-.26-.88c-.12-.38-.23-.77-.35-1.17s-.24-.76-.34-1.16c-.06-.19-.14-.34-.38-.36s-.53,0-.77,0Z"/><path class="cls-2" d="M81,49.27a1.68,1.68,0,0,1,1.49.57,2.44,2.44,0,0,1,0,2.76,1.87,1.87,0,0,1-2.16.41c-1.15-.56-1.12-2.4-.54-3.13a1.75,1.75,0,0,1,.48-.42,1.83,1.83,0,0,1,.73-.19Zm0-.87a2.86,2.86,0,0,0-1.08.25,2.95,2.95,0,0,0,0,5.13,3,3,0,0,0,1.12.27h.29a2.83,2.83,0,0,0,1-.24,2.66,2.66,0,0,0,1.55-2.45v-.3a2.78,2.78,0,0,0-1.09-2.17,3.5,3.5,0,0,0-.42-.24,2.75,2.75,0,0,0-1.06-.25Z"/><path class="cls-2" d="M121.71,51h-.79V49.27c.61,0,1.76-.13,1.76.74a.93.93,0,0,1-.1.54.87.87,0,0,1-.2.23,1.14,1.14,0,0,1-.67.23Zm-1.77,3h1V51.77c.74,0,.52-.05,1.13.76l.68.95c.43.63.36.51,1.48.51-.15-.28-1.6-2.14-1.74-2.4a1.69,1.69,0,0,0,.78-.5,1.6,1.6,0,0,0-.22-2.28,2.44,2.44,0,0,0-1.37-.36h-1.72Z"/><path class="cls-2" d="M114,49.7c0,.09.32.89.38,1l.2.51a3.09,3.09,0,0,1,.19.53h-1.59c0-.1.61-1.61.69-1.81s0-.2.13-.26ZM111.36,54c.41,0,.81.09,1-.13s.08-.13.13-.26l.37-1c0-.07,0-.11.1-.11h2.09c.09,0,.19.34.26.51.43,1.09.21.94,1.35.94a3.21,3.21,0,0,0-.12-.33l-.14-.35L115,49.84l-.28-.69c0-.12-.09-.23-.13-.35a2.13,2.13,0,0,1-.14-.35h-.89a2.67,2.67,0,0,0-.14.34l-1.53,3.82-.28.69Z"/><path class="cls-2" d="M127.46,54H131v-.81h-2.48c-.06,0-.08,0-.08-.08V51.59h2.07V50.8H128.4V49.34c0-.05,0-.07.08-.07H131v-.82h-3.5Z"/><path class="cls-2" d="M71.69,49.88a1.55,1.55,0,0,0,.1.71,1.53,1.53,0,0,0,1,.82c.29.12.7.22.91.3s.55.28.55.65a.81.81,0,0,1-.82.84,1.4,1.4,0,0,1-1.15-.38c-.28-.21-.44-.17-.62.1l-.2.33a1.3,1.3,0,0,0,.32.3,2.34,2.34,0,0,0,1.32.5h.33a1.83,1.83,0,0,0,1.43-.75,1.58,1.58,0,0,0-.19-2.11c-.73-.57-1.89-.51-2-1.13a.7.7,0,0,1,.72-.82,1.29,1.29,0,0,1,.76.15c.28.15.54.46.78,0A3,3,0,0,0,75,49c-.1-.06-.18-.15-.29-.22a2.29,2.29,0,0,0-1.13-.39h-.37a1.74,1.74,0,0,0-1.07.44A1.51,1.51,0,0,0,71.69,49.88Z"/><polygon class="cls-2" points="87.56 53.99 88.53 53.99 88.53 51.72 90.7 51.72 90.7 50.88 88.53 50.88 88.53 49.27 91.06 49.27 91.06 48.45 87.56 48.45 87.56 53.99"/><polygon class="cls-2" points="94.05 49.29 95.77 49.29 95.77 53.99 96.74 53.99 96.74 49.29 98.45 49.29 98.45 48.45 94.05 48.45 94.05 49.29"/><path class="cls-3" d="M11.43,2.92H55.74a5.55,5.55,0,0,1,5.54,5.53V39.89H5.89V8.45a5.55,5.55,0,0,1,5.54-5.53ZM61.28,41.3V52.77a5.56,5.56,0,0,1-5.54,5.54H11.43a5.56,5.56,0,0,1-5.54-5.54V41.3Z"/><path class="cls-2" d="M5.89,41.3V52.77a5.56,5.56,0,0,0,5.54,5.54H55.74a5.56,5.56,0,0,0,5.54-5.54V41.3Z"/><path class="cls-2" d="M37.28,27.84a6.39,6.39,0,0,1,.56.46l.18.16,1.53,1.19a7,7,0,0,0,.83.51,12,12,0,0,0,1.85.87,17.45,17.45,0,0,0,2.22.46,9.91,9.91,0,0,0,2.72-.29,12.74,12.74,0,0,0,1.42-.57,1.15,1.15,0,0,0,.35-.18l.31-.19a7.57,7.57,0,0,0,2.13-1.89,6.94,6.94,0,0,0,1.12-1.88,8.33,8.33,0,0,0,.65-3.32,8.46,8.46,0,0,0-.24-1.79,8.73,8.73,0,0,0-1.26-2.73l-.21-.3a10.06,10.06,0,0,0-1.22-1.29,9.58,9.58,0,0,0-1.85-1.16,9.82,9.82,0,0,0-1.47-.52,8.11,8.11,0,0,0-.86-.14,7.54,7.54,0,0,0-2.37,0,12.15,12.15,0,0,0-1.45.33,3.29,3.29,0,0,1-.44.16c-.29.1-.55.23-.83.35A12.11,12.11,0,0,0,38.1,18l-1.24,1.12-1.13,1.24-.29.31-.86.92c-.21.21-.35.41-.56.63L32.93,23.5l-.14.17L31.16,25.6l-.13.14a33.13,33.13,0,0,1-2.4,2.34,17.85,17.85,0,0,1-1.71,1.26c-.25.15-.49.31-.75.44a7.82,7.82,0,0,1-8.81-.72l-.92-.92a7.31,7.31,0,0,1-1.51-3.07,9.21,9.21,0,0,1-.22-1.6,7.62,7.62,0,0,1,.58-3,7.38,7.38,0,0,1,2-2.76l.45-.35a7.5,7.5,0,0,1,2.7-1.24,7.89,7.89,0,0,1,5.27.62,10.75,10.75,0,0,1,1.51.9c.16.11.33.21.46.32.31.27,1.59,1.26,1.71,1.44a4.25,4.25,0,0,1-.71.93c-.13.15-.29.28-.41.44a2.64,2.64,0,0,0-.33.47c-.24,0-.45-.28-.61-.44a6.13,6.13,0,0,0-.54-.49c-.19-.14-.38-.31-.58-.44A11.74,11.74,0,0,0,24.93,19a9.45,9.45,0,0,0-1.08-.49,5,5,0,0,0-1.27-.27,4.84,4.84,0,0,0-2.73.57,4,4,0,0,0-1.22.89,4.95,4.95,0,0,0-1.12,5.55,4.49,4.49,0,0,0,.69,1.12l.27.33.06.09c.06.07,0,0,.08.07a6.71,6.71,0,0,0,1.2.9,5.28,5.28,0,0,0,1.83.56A6.49,6.49,0,0,0,24.29,28a12.81,12.81,0,0,0,2.76-1.7A18.14,18.14,0,0,0,28.4,25l.87-.92c.34-.38.41-.53.83-.94s1.11-1.29,1.66-1.9c.07-.08.07-.1.14-.17a1.53,1.53,0,0,1,.13-.15l.79-1a38.73,38.73,0,0,1,3.49-3.61c.41-.36.89-.69,1.31-1,.11-.09.23-.17.35-.25.41-.29.69-.43,1.1-.68a11.08,11.08,0,0,1,5.48-1.62,10.51,10.51,0,0,1,1.84.14,8.85,8.85,0,0,1,3,.81,10.23,10.23,0,0,1,2,1.21,1.17,1.17,0,0,0,.16.15,10,10,0,0,1,3,3.68,11.1,11.1,0,0,1,1,4A11.36,11.36,0,0,1,55,26.69a8.81,8.81,0,0,1-.7,1.57,1.36,1.36,0,0,1-.1.21,7.06,7.06,0,0,1-.48.8,11.09,11.09,0,0,1-1.83,2l-.71.57L50,32.63a9,9,0,0,1-2.31.9,10.84,10.84,0,0,1-2.21.35,10.51,10.51,0,0,1-3.83-.5,13.33,13.33,0,0,1-3.23-1.6,19.78,19.78,0,0,1-1.65-1.19L36.1,30a1.5,1.5,0,0,1-.36-.43,4.31,4.31,0,0,1,.39-.46l.95-1.1c.09-.09.12-.14.2-.21ZM21.74,15.15a11,11,0,0,1,3,.4,8.7,8.7,0,0,1,1,.41,11.18,11.18,0,0,1,2.63,1.59l.58.45c.15.12.67.53.76.64s.07.14.19.19.29-.31.4-.44.13-.13.19-.22c.3-.38.67-.77,1-1.15,0-.15-.31-.29-.42-.39l-.89-.73c-.19-.15-.29-.25-.45-.36-.34-.23-.5-.41-.93-.69l-1-.61c-.11-.06-.18-.07-.28-.12s-.14-.1-.25-.16l-.56-.25a9.56,9.56,0,0,0-2.48-.77,10.58,10.58,0,0,0-4.48.12,10,10,0,0,0-3.82,1.8l-.34.28-.34.29a10.62,10.62,0,0,0-2,2.37,7.7,7.7,0,0,0-.82,1.68c-.12.3-.22.61-.32.92a7.73,7.73,0,0,0-.4,2.13,10.67,10.67,0,0,0,1.4,6.1c.15.28.3.51.47.77l1.16,1.37c.1.1.21.22.31.31l1,.83c.24.18.51.32.76.49a9.82,9.82,0,0,0,2.61,1.13,6.36,6.36,0,0,0,1.09.2,8.92,8.92,0,0,0,2.27.14,10.57,10.57,0,0,0,3.14-.59,11.88,11.88,0,0,0,1.74-.76,12.75,12.75,0,0,0,3-2l.84-.72a2.09,2.09,0,0,1,.17-.14l2-2.07.15-.19c.11-.13.18-.2.28-.34s.31-.33.44-.5.31-.32.44-.5l.57-.67c.39-.44.77-1,1.15-1.34a2.28,2.28,0,0,0,.29-.34c.17-.24.42-.42.59-.66s.71-.79.9-1l1.41-1.39A15.54,15.54,0,0,1,41,19.67a10.29,10.29,0,0,1,1.58-.91,6.24,6.24,0,0,1,2.72-.48,4.59,4.59,0,0,1,1.8.49,6.35,6.35,0,0,1,.73.42A6.15,6.15,0,0,1,49.48,21a4.33,4.33,0,0,1,.32.83A4.54,4.54,0,0,1,50,23.56a4.6,4.6,0,0,1-.87,2.6,4,4,0,0,1-.5.65c-.23.21-.38.37-.61.55a5.52,5.52,0,0,1-1.53.78,5.29,5.29,0,0,1-2,.22,7.33,7.33,0,0,1-2.24-.72,12.37,12.37,0,0,1-1.78-1.21l-.81-.69c-.1-.08-.16-.18-.28-.22a2.92,2.92,0,0,0-.41.45l-.8.88c-.07.09-.09.13-.18.23a2.05,2.05,0,0,0-.2.23l1.44,1.24a16.5,16.5,0,0,0,1.6,1.07c.31.16.93.41,1.12.54s.06.05.25.09a6.62,6.62,0,0,0,1.61.41,15.34,15.34,0,0,0,1.62.13A9.6,9.6,0,0,0,48.3,30c.13-.08.14-.11.26-.18l.3-.17a7.28,7.28,0,0,0,2-1.74,6.56,6.56,0,0,0,1-1.75A6,6,0,0,0,52.4,24a8.19,8.19,0,0,0,0-.85q0-.42-.09-.81c0-.24-.07-.58-.12-.81a9.26,9.26,0,0,0-.5-1.34,6.68,6.68,0,0,0-1.1-1.68,8.8,8.8,0,0,0-.65-.72l-.8-.6c-.17-.12-.35-.23-.56-.35A6,6,0,0,0,48,16.5,10.29,10.29,0,0,0,46.61,16a4.06,4.06,0,0,0-.82-.11l-1.12-.08a9.7,9.7,0,0,0-3.7,1c-.22.16-.52.29-.75.43-.48.3-.91.68-1.38,1-.12.09-.21.18-.33.26A19.07,19.07,0,0,0,37,20c-.28.32-.57.59-.86.91l-.83.95c-.16.22-.4.42-.55.64l-3.69,4.25-1.06,1-.15.13c-.07.08-.06.1-.13.18l-.65.53a3,3,0,0,1-.32.28,13.4,13.4,0,0,1-2.51,1.63,8.2,8.2,0,0,1-.81.38c-.3.08-.6.21-.9.29a10.4,10.4,0,0,1-3,.31,14.17,14.17,0,0,1-1.66-.32A7.6,7.6,0,0,1,17,29.64a8,8,0,0,1-1.44-1.52A7.83,7.83,0,0,1,14,23.22,7.15,7.15,0,0,1,14.72,20a6.89,6.89,0,0,1,1.6-2.36A8.25,8.25,0,0,1,21.74,15.15Z"/><path class="cls-3" d="M183.82,34.7a5.33,5.33,0,0,1,.7.57l.22.21L186.66,37a8.15,8.15,0,0,0,1,.65A16.79,16.79,0,0,0,190,38.68a24,24,0,0,0,2.78.58,12.79,12.79,0,0,0,3.38-.37,14.67,14.67,0,0,0,1.78-.71,1.59,1.59,0,0,0,.43-.23c.12-.08.27-.15.4-.23a9.5,9.5,0,0,0,2.65-2.36,8.87,8.87,0,0,0,1.4-2.34,10.74,10.74,0,0,0,.81-4.15,12.42,12.42,0,0,0-.3-2.23,10.83,10.83,0,0,0-1.57-3.41c-.09-.12-.18-.26-.26-.36A12.57,12.57,0,0,0,200,21.25a12.61,12.61,0,0,0-2.29-1.44,13.32,13.32,0,0,0-1.84-.65,7.6,7.6,0,0,0-1.08-.17,8.86,8.86,0,0,0-3,0,15.81,15.81,0,0,0-1.81.41l-.54.2a10.82,10.82,0,0,0-1,.44,14.39,14.39,0,0,0-3.55,2.37l-1.56,1.4-1.41,1.55-.36.37-1.06,1.15c-.27.27-.45.51-.7.79l-1.36,1.59-.18.21-2,2.41-.16.18A41.28,41.28,0,0,1,173,35a23.26,23.26,0,0,1-2.13,1.57c-.32.19-.61.39-.93.55a10,10,0,0,1-8.85.42A10.12,10.12,0,0,1,159,36.22l-1.15-1.15a9.13,9.13,0,0,1-1.89-3.83,11.51,11.51,0,0,1-.26-2,9.76,9.76,0,0,1,.71-3.8A9.2,9.2,0,0,1,158.87,22c.2-.14.35-.28.57-.44A9.17,9.17,0,0,1,162.8,20a9.81,9.81,0,0,1,6.58.78,12.12,12.12,0,0,1,1.88,1.12,5.16,5.16,0,0,1,.57.39c.4.34,2,1.58,2.13,1.8a4.92,4.92,0,0,1-.88,1.17,5.27,5.27,0,0,0-.5.55,2.46,2.46,0,0,0-.42.58c-.29,0-.57-.35-.77-.55a6.19,6.19,0,0,0-.66-.61c-.25-.18-.47-.38-.73-.56a15.05,15.05,0,0,0-1.59-1,9.45,9.45,0,0,0-1.34-.6,6.19,6.19,0,0,0-5,.36,5.46,5.46,0,0,0-1.54,1.11,6.34,6.34,0,0,0-1.9,4.42,6.22,6.22,0,0,0,.52,2.51,5.22,5.22,0,0,0,.86,1.4l.33.4.08.12c.07.09,0,0,.1.09A8,8,0,0,0,162,34.65a6.65,6.65,0,0,0,2.29.7,8.24,8.24,0,0,0,3.3-.47,15.57,15.57,0,0,0,3.44-2.13,21.25,21.25,0,0,0,1.69-1.61L173.83,30c.43-.47.52-.66,1-1.18.69-.69,1.39-1.61,2.08-2.36.08-.1.09-.13.16-.22l.17-.18,1-1.2a48,48,0,0,1,4.36-4.51c.5-.44,1.1-.86,1.63-1.28a4.73,4.73,0,0,1,.43-.31c.51-.36.87-.54,1.37-.85a13.38,13.38,0,0,1,9.13-1.85,11.1,11.1,0,0,1,3.74,1,12.83,12.83,0,0,1,2.49,1.52,2,2,0,0,0,.21.18,12.44,12.44,0,0,1,3.69,4.6,13.73,13.73,0,0,1,1.3,5,14.39,14.39,0,0,1-.68,4.87,11.65,11.65,0,0,1-.88,2l-.12.26a9.06,9.06,0,0,1-.61,1A14.1,14.1,0,0,1,202.05,39l-.89.71-1.47.94a11.79,11.79,0,0,1-2.89,1.12,13.15,13.15,0,0,1-2.75.43,13.32,13.32,0,0,1-4.78-.62,16.3,16.3,0,0,1-4-2,25.06,25.06,0,0,1-2.06-1.49l-.83-.68a2,2,0,0,1-.45-.53,5.27,5.27,0,0,1,.48-.58l1.2-1.37c.11-.11.14-.17.24-.26ZM164.44,18.87a13.83,13.83,0,0,1,3.69.5,10.33,10.33,0,0,1,1.24.52,13.24,13.24,0,0,1,3.27,2l.73.56c.19.16.84.67.95.81s.09.18.23.23c.21-.11.36-.39.51-.55l.24-.27c.37-.48.83-1,1.19-1.44-.07-.18-.39-.36-.52-.48l-1.11-.91c-.24-.19-.37-.31-.57-.45-.42-.29-.62-.51-1.16-.86l-1.26-.76c-.14-.08-.23-.09-.35-.16s-.17-.12-.31-.19-.45-.21-.7-.32a11.58,11.58,0,0,0-3.09-.95,13,13,0,0,0-5.59.14,12.74,12.74,0,0,0-4.76,2.25l-.43.35c-.14.11-.26.21-.42.36a13,13,0,0,0-2.48,3,9.41,9.41,0,0,0-1,2.09c-.15.38-.28.76-.41,1.15a10,10,0,0,0-.49,2.66,13.43,13.43,0,0,0,1.74,7.61c.19.34.37.63.59,1l1.45,1.7a4.78,4.78,0,0,0,.39.39l1.29,1c.3.21.64.4.95.61a12.37,12.37,0,0,0,3.26,1.41,8.07,8.07,0,0,0,1.35.25,11.43,11.43,0,0,0,2.83.18,13.21,13.21,0,0,0,3.92-.75,12.84,12.84,0,0,0,2.17-.95A16.07,16.07,0,0,0,175.45,38l1.05-.91.21-.17,2.48-2.58c.09-.09.1-.14.19-.24s.23-.24.36-.42.37-.41.54-.63.39-.4.55-.62l.71-.84c.49-.54,1-1.19,1.44-1.67a4.71,4.71,0,0,0,.36-.42c.21-.3.52-.52.73-.82s.88-1,1.12-1.26L187,25.7a18.8,18.8,0,0,1,1.53-1.19,13.33,13.33,0,0,1,2-1.13,7.63,7.63,0,0,1,3.39-.6,5.75,5.75,0,0,1,2.25.61,8,8,0,0,1,.91.52,7.85,7.85,0,0,1,2,2.3,6.75,6.75,0,0,1,.66,3.16,5.65,5.65,0,0,1-1.09,3.23,3.55,3.55,0,0,1-.62.81,9.67,9.67,0,0,1-.76.69,6.69,6.69,0,0,1-1.9,1,6.6,6.6,0,0,1-2.56.28,9.17,9.17,0,0,1-2.8-.9,15.75,15.75,0,0,1-2.22-1.51l-1-.86c-.13-.09-.19-.22-.36-.27a3.84,3.84,0,0,0-.5.56l-1,1.1c-.1.11-.12.16-.23.28a3,3,0,0,0-.25.28l1.79,1.55a19.91,19.91,0,0,0,2,1.34c.39.2,1.16.52,1.4.67s.07.06.31.12a8.1,8.1,0,0,0,2,.5,15.88,15.88,0,0,0,2,.17,11.84,11.84,0,0,0,3.64-1,3.05,3.05,0,0,1,.32-.22c.13-.08.23-.12.37-.21a9,9,0,0,0,2.46-2.18A7.82,7.82,0,0,0,202,32.64a7.27,7.27,0,0,0,.67-2.77,7.57,7.57,0,0,0,.06-1.05c0-.36-.06-.69-.11-1s-.09-.72-.16-1a11.17,11.17,0,0,0-.62-1.68A8.37,8.37,0,0,0,200.48,23a11.81,11.81,0,0,0-.82-.91l-1-.74A6.48,6.48,0,0,0,198,21a6.21,6.21,0,0,0-.77-.4,14,14,0,0,0-1.73-.56,5.32,5.32,0,0,0-1-.15l-1.4-.09A12.15,12.15,0,0,0,188.42,21c-.27.19-.65.36-.94.54-.6.37-1.13.85-1.71,1.24-.15.11-.26.22-.41.33a21.82,21.82,0,0,0-1.91,1.75c-.35.4-.72.73-1.07,1.14l-1,1.19c-.21.26-.49.52-.68.79l-4.61,5.31-1.32,1.29-.18.16c-.09.1-.08.13-.17.23l-.81.66c-.14.11-.23.23-.4.35A17.13,17.13,0,0,1,170,38a8.89,8.89,0,0,1-1,.47c-.38.11-.74.27-1.12.36a12.72,12.72,0,0,1-3.71.4,20.07,20.07,0,0,1-2.06-.4,9.26,9.26,0,0,1-3.61-1.92,9.51,9.51,0,0,1-1.8-1.89,9.76,9.76,0,0,1-1.93-6.11,8.92,8.92,0,0,1,.88-4,8.59,8.59,0,0,1,2-3A10.28,10.28,0,0,1,164.44,18.87Z"/><path class="cls-2" d="M126,29.06a11.05,11.05,0,0,1,.75-4.06,9.72,9.72,0,0,1,1.93-3c.22-.22.37-.28.64-.52a9.65,9.65,0,0,1,10.25-1.57,11.71,11.71,0,0,1,1.58.9,10.24,10.24,0,0,1,3.47,12.16,11.22,11.22,0,0,1-1.95,3A9.7,9.7,0,0,1,126,29.06ZM121.9,42.47l3.94.15c.72,0,.43-2.27.43-3.65a5.52,5.52,0,0,1,.84.77,8.64,8.64,0,0,0,.88.72,13.23,13.23,0,0,0,16.06.1,14.34,14.34,0,0,0,4.67-17.16,12.51,12.51,0,0,0-2-3.26,10.31,10.31,0,0,0-.8-.95,13.37,13.37,0,0,0-10.17-4.26,12.87,12.87,0,0,0-7.55,2.51c-.69.51-1.28,1.13-1.94,1.57V5.6H121.9Z"/><path class="cls-2" d="M105.41,19.15a9,9,0,0,1,9,6.71H96.8a8.75,8.75,0,0,1,5.31-6.07,11.65,11.65,0,0,1,3.3-.64ZM91.7,28.92a14.79,14.79,0,0,0,3.83,10.16,11.16,11.16,0,0,0,1.77,1.58c4.53,3.56,12.28,3.32,16.93-.16a13.54,13.54,0,0,0,2.67-2.73,14.17,14.17,0,0,0,1.93-3.46c-5.75,0-3.17-.71-6.66,2.23C107,40.86,99.54,39.4,97.11,33.71a11.66,11.66,0,0,1-.89-3.77h23.2v-.88c0-11.75-11.8-16.73-19.9-12.87A14.35,14.35,0,0,0,91.7,28.92Z"/><path class="cls-2" d="M211.18,6.33v9.33h-4.52v3.93h4.52V42.47h4.53V19.59h4.81c.34,0,.44-.1.44-.44V15.66h-5.25V6A23.83,23.83,0,0,1,212,5.91C211.51,5.85,211.18,5.84,211.18,6.33Z"/><path class="cls-2" d="M72.85,21.68v-11h6.39a13.82,13.82,0,0,1,4.25.55,4.84,4.84,0,0,1,1.06.56,4.21,4.21,0,0,1,.83.75,4.64,4.64,0,0,1,.68.93,5.63,5.63,0,0,1,.27,4.76,5.23,5.23,0,0,1-1.54,2.09,5.7,5.7,0,0,1-2.54,1.11,14.93,14.93,0,0,1-1.6.21l-1.15.05a2.66,2.66,0,0,1-.28,0c-1.69,0-3.45,0-5.17,0l-1.2,0ZM68.48,42.2h4.37V26h1.31c.08,0,.15.13.21.22l.2.25L76.7,29.2c.63.83,1.34,1.71,2,2.54l7.23,9.4c.2.27.61.77.79,1h5.39a.83.83,0,0,0-.17-.26c-.61-.73-1.33-1.75-2-2.52L88,36.86l-.2-.26L84.29,32l-.39-.51-3.12-4.05-.19-.25-.79-1c-.07-.1-.14-.17-.2-.26.13,0,.16,0,.3,0h.33l.62-.05a18,18,0,0,0,3.46-.56,10.13,10.13,0,0,0,1.94-.73A12.18,12.18,0,0,0,87.31,24l.19-.14.4-.29a8.81,8.81,0,0,0,2.77-3.92A8.53,8.53,0,0,0,91,18.57a10.34,10.34,0,0,0-.87-7.15,9.7,9.7,0,0,0-.9-1.3l-.16-.19c-.08-.07-.1-.13-.18-.2A9.24,9.24,0,0,0,87.3,8.36,10,10,0,0,0,83,6.74c-.42-.06-1.53-.18-2-.19l-.69,0c-1,0-1.9-.08-2.89-.08h-9Z"/><path class="cls-4" d="M44.91,52.78a1.4,1.4,0,0,1,.2.17l.07.06.55.42a1.72,1.72,0,0,0,.3.19,4,4,0,0,0,.66.31,5.55,5.55,0,0,0,.81.17,4,4,0,0,0,1-.1c.19-.06.34-.14.52-.21a.29.29,0,0,0,.12-.07l.11-.06A2.55,2.55,0,0,0,50,53a2.41,2.41,0,0,0,.41-.67,3.18,3.18,0,0,0,.23-1.21,2.82,2.82,0,0,0-.09-.64,3,3,0,0,0-.45-1L50,49.35a3.21,3.21,0,0,0-.44-.46,3.07,3.07,0,0,0-.66-.42,4.29,4.29,0,0,0-.54-.19,1.54,1.54,0,0,0-.31-.05,2.76,2.76,0,0,0-.86,0,3.25,3.25,0,0,0-.52.12l-.16,0-.3.13a4,4,0,0,0-1,.69l-.45.4-.41.45-.11.11-.31.33-.2.23-.39.46-.05.06-.59.7-.05.05a10,10,0,0,1-.87.85,6,6,0,0,1-.61.45l-.27.16a2.9,2.9,0,0,1-2.57.12,2.87,2.87,0,0,1-.62-.38l-.33-.33a2.76,2.76,0,0,1-.55-1.11,3.68,3.68,0,0,1-.07-.58A2.73,2.73,0,0,1,37,50.1a2.58,2.58,0,0,1,.71-1l.17-.13a2.74,2.74,0,0,1,2.88-.22,3.65,3.65,0,0,1,.54.32l.17.12a7.07,7.07,0,0,1,.61.52,1.59,1.59,0,0,1-.25.33l-.15.16a1,1,0,0,0-.12.17c-.08,0-.16-.1-.22-.16a1.45,1.45,0,0,0-.19-.17l-.22-.16a3.46,3.46,0,0,0-.45-.29,2.2,2.2,0,0,0-.39-.17,1.8,1.8,0,0,0-.46-.1,1.83,1.83,0,0,0-1.43.52,1.81,1.81,0,0,0-.55,1.28,1.9,1.9,0,0,0,.15.73,1.24,1.24,0,0,0,.25.4l.09.12,0,0,0,0a1.87,1.87,0,0,0,.43.33,2,2,0,0,0,.66.2,2.36,2.36,0,0,0,1-.14,4.8,4.8,0,0,0,1-.61,5.44,5.44,0,0,0,.49-.47l.31-.33c.13-.14.15-.19.3-.34s.41-.47.6-.69c0,0,0,0,.05-.06l0,0,.29-.35a13,13,0,0,1,1.26-1.3l.47-.38.13-.09.4-.24a3.91,3.91,0,0,1,2-.58,5.12,5.12,0,0,1,.67,0,3.11,3.11,0,0,1,1.08.3,3.92,3.92,0,0,1,.72.43l.06.06a3.52,3.52,0,0,1,1.07,1.33A3.89,3.89,0,0,1,51.51,51a4.15,4.15,0,0,1-.2,1.41,3,3,0,0,1-.25.57s0,0,0,.08l-.17.29a4.58,4.58,0,0,1-.66.73l-.26.21-.43.27a3.51,3.51,0,0,1-.83.33,4.17,4.17,0,0,1-.8.12,3.83,3.83,0,0,1-1.38-.18,4.41,4.41,0,0,1-1.17-.58,6,6,0,0,1-.6-.43l-.24-.2a.64.64,0,0,1-.13-.15,2.09,2.09,0,0,1,.14-.17l.35-.39.07-.08ZM39.29,48.2a4.09,4.09,0,0,1,1.08.14,3.35,3.35,0,0,1,.35.15,3.81,3.81,0,0,1,1,.57l.21.17.28.23s0,0,.06.07.11-.12.15-.16l.07-.08.35-.42s-.12-.1-.16-.14l-.32-.26-.16-.13c-.12-.08-.18-.15-.34-.25l-.36-.22-.1,0-.09,0a1.89,1.89,0,0,0-.21-.09,3.3,3.3,0,0,0-.89-.28,3.85,3.85,0,0,0-1.62,0,3.73,3.73,0,0,0-1.38.65l-.12.1a1.2,1.2,0,0,0-.12.11,3.69,3.69,0,0,0-.72.85,2.88,2.88,0,0,0-.3.61l-.12.33a2.76,2.76,0,0,0-.14.77,4,4,0,0,0,.5,2.21l.18.28.41.49.12.11.37.3.28.18a3.77,3.77,0,0,0,.94.41,2.44,2.44,0,0,0,.39.07,3.18,3.18,0,0,0,.82.05,3.72,3.72,0,0,0,1.14-.22,3.42,3.42,0,0,0,.62-.27,4.66,4.66,0,0,0,1.08-.73l.3-.26s0,0,.06,0l.72-.75,0-.07.11-.12a1.3,1.3,0,0,1,.15-.18c0-.06.12-.12.16-.18l.21-.25c.14-.15.28-.34.41-.48a1.2,1.2,0,0,0,.11-.12c.06-.09.15-.15.21-.24s.26-.29.32-.36l.52-.51a3.93,3.93,0,0,1,.44-.34,3.64,3.64,0,0,1,.58-.33,2.17,2.17,0,0,1,1-.17,1.79,1.79,0,0,1,.66.17,2.26,2.26,0,0,1,.26.16,2.16,2.16,0,0,1,.58.66,1.66,1.66,0,0,1,.12.31,1.75,1.75,0,0,1-.24,1.54.84.84,0,0,1-.18.24c-.08.07-.13.13-.22.2a1.79,1.79,0,0,1-.55.28,1.88,1.88,0,0,1-.74.08,2.64,2.64,0,0,1-.81-.26,4.25,4.25,0,0,1-.64-.44l-.3-.25a.27.27,0,0,0-.1-.08.75.75,0,0,0-.14.17l-.29.31-.07.09a.27.27,0,0,0-.07.08l.52.45a5.79,5.79,0,0,0,.58.38c.11.06.33.15.4.2s0,0,.09,0a2.09,2.09,0,0,0,.58.15c.22,0,.39.05.59.05a3.32,3.32,0,0,0,1-.28l.09-.06.11-.06a2.68,2.68,0,0,0,.71-.63,2.37,2.37,0,0,0,.37-.63,2.24,2.24,0,0,0,.2-.81c0-.12,0-.18,0-.3a2.72,2.72,0,0,0,0-.3,2.89,2.89,0,0,0,0-.29,3.41,3.41,0,0,0-.18-.48,2.39,2.39,0,0,0-.4-.61c-.08-.09-.15-.18-.23-.26l-.29-.22L49,48.8a1.14,1.14,0,0,0-.22-.12c-.17-.06-.31-.11-.5-.16a1.36,1.36,0,0,0-.3,0l-.4,0a3.54,3.54,0,0,0-1.34.37c-.08,0-.19.1-.27.16s-.33.24-.5.36l-.12.09a6.77,6.77,0,0,0-.55.51c-.1.11-.21.21-.31.33l-.3.34c-.06.08-.14.15-.2.23l-1.33,1.54-.38.37-.06,0s0,0,0,.06l-.23.2-.12.1a6.09,6.09,0,0,1-.9.59,2.48,2.48,0,0,1-.3.13L40.3,54a3.9,3.9,0,0,1-1.07.11c-.09,0-.49-.09-.6-.11a3,3,0,0,1-1.57-1.11,2.85,2.85,0,0,1-.56-1.77A2.57,2.57,0,0,1,36.76,50a2.47,2.47,0,0,1,.58-.85A3,3,0,0,1,39.29,48.2Z"/><path class="cls-4" d="M28.16,51.15A3.23,3.23,0,0,1,28.37,50a3.13,3.13,0,0,1,.56-.88l.19-.15a2.79,2.79,0,0,1,3-.45,4,4,0,0,1,.45.26,3,3,0,0,1,1,3.52,3.33,3.33,0,0,1-.56.87,2.81,2.81,0,0,1-4.83-2ZM27,55l1.15,0c.21,0,.12-.65.12-1a1.26,1.26,0,0,1,.24.22,2.65,2.65,0,0,0,.26.21,3.84,3.84,0,0,0,4.65,0,4.15,4.15,0,0,0,1.35-5,3.53,3.53,0,0,0-.57-.95c-.09-.1-.14-.18-.23-.27A3.87,3.87,0,0,0,31,47.05a3.78,3.78,0,0,0-2.19.73c-.2.15-.37.33-.56.46V44.35H27Z"/><path class="cls-4" d="M22.2,48.28a2.61,2.61,0,0,1,2.62,1.94H19.71a2.53,2.53,0,0,1,1.54-1.76,3.41,3.41,0,0,1,.95-.18Zm-4,2.83a4.29,4.29,0,0,0,1.11,2.94,3.21,3.21,0,0,0,.51.46,4.31,4.31,0,0,0,4.9,0,3.65,3.65,0,0,0,.78-.79,4.27,4.27,0,0,0,.56-1c-1.67,0-.92-.21-1.93.64a2.74,2.74,0,0,1-4.36-.82,3.29,3.29,0,0,1-.26-1.09h6.72v-.25a4,4,0,0,0-5.76-3.73A4.16,4.16,0,0,0,18.23,51.11Z"/><path class="cls-4" d="M52.83,44.56v2.71H51.52v1.14h1.31V55h1.31V48.41h1.4c.09,0,.12,0,.12-.13v-1H54.14V44.48a6.31,6.31,0,0,1-1.07,0C52.93,44.43,52.83,44.42,52.83,44.56Z"/><path class="cls-4" d="M12.77,49V45.83h1.85a3.81,3.81,0,0,1,1.23.16,1.51,1.51,0,0,1,.31.16,1,1,0,0,1,.24.22,1.09,1.09,0,0,1,.19.27A1.6,1.6,0,0,1,16.67,48a1.41,1.41,0,0,1-.44.61,1.64,1.64,0,0,1-.74.32A3.62,3.62,0,0,1,15,49l-.33,0H12.77ZM11.51,55h1.26v-4.7h.38s0,0,.06.06l.06.07.62.81.56.73,2.1,2.73.23.3h1.56a.56.56,0,0,0-.05-.08c-.18-.21-.39-.51-.57-.73l-.56-.73-.06-.08-1-1.32L16,51.86l-.9-1.17L15,50.62l-.23-.3-.06-.07h.19l.18,0a4.54,4.54,0,0,0,1-.16,3.09,3.09,0,0,0,.56-.21l.31-.18.05,0,.12-.08a2.55,2.55,0,0,0,.8-1.14,1.32,1.32,0,0,0,.09-.3A3,3,0,0,0,17.77,46a2.55,2.55,0,0,0-.26-.38l-.05,0-.05-.06a2.93,2.93,0,0,0-.46-.4,3,3,0,0,0-1.23-.47c-.12,0-.44,0-.58,0l-.2,0-.84,0H11.51Z"/></svg>